<svg width="264" height="182" viewBox="0 0 264 182" fill="none" xmlns="http://www.w3.org/2000/svg">
<path d="M155.437 154.186C155.437 155.401 157.412 154.186 155.437 154.186V154.186Z" fill="black"/>
<path d="M111.328 126.849C116.463 128.57 107.247 120.774 111.328 126.849V126.849Z" fill="black"/>
<path d="M45.1 129.684C47.075 132.316 45.1 128.469 45.1 129.684V129.684Z" fill="black"/>
<path d="M118.833 133.632C115.278 129.38 116.2 134.24 118.833 136.872C125.153 141.631 121.203 134.24 118.833 133.632Z" fill="black"/>
<path d="M240.493 161.983C233.515 168.361 227.327 161.274 219.032 163.299C204.548 163.299 220.217 158.236 219.822 153.174C212.185 148.618 203.495 159.35 198.492 162.286C186.348 160.674 174.529 157.849 163.337 153.883C150.301 149.202 138.65 142.517 129.103 134.24C118.421 126.053 110.041 116.266 104.482 105.485C97.3753 86.5894 93.6543 67.0367 93.4217 47.3675C94.3433 34.205 112.382 48.785 119.755 44.0263C116.99 37.2425 102.77 35.1163 94.87 32.2813C87.2333 32.2813 84.4683 26.7125 76.4367 26.3075C76.4367 18.9163 61.5583 22.9663 55.8967 17.8025C61.4267 6.86753 37.8583 17.8025 39.7017 8.58878C47.3383 -3.56122 16.265 -1.53622 29.1683 9.19628C41.6767 14.6638 16.9233 18.6125 24.165 22.2575C24.7773 23.1723 25.072 24.1932 25.0206 25.2213C24.9691 26.2493 24.5733 27.2498 23.8713 28.1257C23.1694 29.0015 22.1852 29.7231 21.014 30.2206C19.8429 30.7181 18.5245 30.9745 17.1867 30.965C7.44333 31.6738 8.365 42.0013 17.9767 36.5338C28.6417 34.0025 19.82 37.6475 14.685 38.3563C11.9752 38.6732 9.40393 39.4859 7.18758 40.726C4.97123 41.9662 3.17459 43.5975 1.94878 45.4827C0.722975 47.368 0.103859 49.452 0.143515 51.5596C0.183172 53.6672 0.880441 55.7366 2.17667 57.5938C7.32037 68.9586 11.7149 80.5158 15.3433 92.2213C23.4704 109.966 35.4947 126.507 50.8933 141.125C58.9904 148.94 68.579 155.767 79.3333 161.375C89.2079 166.606 99.9746 170.762 111.328 173.728C131.567 178.312 152.512 180.798 173.607 181.119C186.403 181.174 199.18 180.36 211.79 178.689C223.245 179.6 231.408 172.108 241.547 176.056C247.867 171.804 256.82 173.728 263.008 170.589C267.222 158.236 246.945 167.855 240.493 161.983ZM217.583 154.49C214.687 154.49 218.242 151.048 217.583 154.49V154.49ZM117.122 43.115C115.805 43.115 116.068 41.9 115.015 41.5963C104.482 37.85 120.15 39.2675 117.122 43.52V43.115ZM206.128 158.439C201.52 157.629 209.815 155.908 206.128 158.439V158.439ZM169.13 159.553C166.102 159.553 171.5 158.135 169.13 159.553V159.553ZM144.377 147.605C142.665 147.605 144.377 146.289 144.377 147.605V147.605ZM141.48 145.884C136.74 145.884 140.295 143.555 141.48 145.884V145.884ZM135.95 142.239C131.605 143.049 135.95 138.796 135.95 142.239V142.239ZM56.95 24.1813C49.9717 21.3463 58.3983 27.5225 52.4733 27.4213C49.3133 27.4213 43.3883 22.1563 45.3633 19.5238C49.3133 21.1438 56.2917 21.65 57.4767 24.5863L56.95 24.1813ZM44.8367 15.98H43.3883C42.9933 13.2463 54.8433 15.3725 45.3633 16.385L44.8367 15.98ZM31.4067 7.98128C25.8767 6.05753 31.4067 -1.43497 37.2 2.10878C43.915 9.50003 24.6917 1.29877 31.4067 7.98128ZM37.8583 14.9675C34.3033 16.0813 39.965 12.8413 37.8583 14.9675V14.9675ZM44.1783 24.2825C52.0783 28.94 39.7017 24.2825 34.6983 27.2188C26.6667 27.8263 43.3883 23.7763 44.1783 24.2825ZM46.4167 30.3575C51.025 30.3575 71.17 23.3713 64.455 29.6488C70.6433 35.2175 65.7717 33.395 61.69 29.6488C65.3767 31.5725 62.48 39.7738 56.8183 34.205C51.1567 28.6363 50.235 32.3825 54.58 36.3313C50.3667 29.75 38.2533 32.585 29.4317 34.8125C23.77 34.4075 44.31 31.0663 46.4167 30.3575V30.3575ZM21.1367 45.0388C19.03 49.0888 24.2967 50.405 29.3 51.1138C37.4633 49.3925 23.9017 48.2788 30.09 46.6588C33.5133 46.6588 19.2933 44.0263 31.1433 42.8113C42.9933 41.5963 54.185 37.5463 66.1667 35.6225C76.3195 33.9058 86.7287 33.2587 97.1083 33.6988C101.058 37.2425 94.08 43.2163 86.97 43.8238C78.4264 45.9369 69.5868 47.2625 60.6367 47.7725C50.1033 46.76 42.5983 53.9488 31.8017 54.86C34.6983 50.81 29.4317 53.4425 24.0333 53.24C26.7983 61.5425 4.67833 51.1138 17.7133 49.0888C7.97 46.4563 7.83833 54.3538 8.89167 59.2138C0.333332 50 9.81333 46.1525 21.1367 45.0388V45.0388ZM45.89 55.9738C42.9933 55.4675 48.1283 53.9488 45.89 55.9738V55.9738ZM36.41 64.8838C36.41 64.8838 31.9333 64.0738 33.7767 63.1625C46.9433 64.4788 21.9267 59.8213 35.4883 60.935C44.1783 60.7325 41.2817 64.58 36.41 64.8838ZM40.755 66.605C39.175 67.82 40.755 64.175 40.755 66.605V66.605ZM31.4067 66.605C25.6133 65.6938 34.1717 64.3775 31.4067 66.605V66.605ZM30.6167 81.0838C29.695 82.0963 29.3 80.2738 30.6167 81.0838V81.0838ZM26.6667 79.3625C19.425 77.4388 26.6667 77.2363 26.6667 79.3625V79.3625ZM25.0867 92.3225C21.6633 91.4113 21.795 87.26 20.215 85.0325C15.2117 74.6038 25.6133 89.0825 24.56 92.3225H25.0867ZM28.115 77.2363C19.03 76.4263 27.4567 72.275 28.115 77.2363V77.2363ZM28.115 73.7938H26.93C16.9233 70.25 32.855 72.0725 26.6667 73.7938H28.115ZM26.6667 65.795C18.635 62.6563 34.3033 62.15 26.6667 65.795V65.795ZM29.4317 68.4275C24.955 69.035 30.09 65.1875 29.4317 68.4275V68.4275ZM12.315 69.1363C10.735 69.9463 12.315 66.8075 12.315 69.1363V69.1363ZM13.5 67.7188C11.3933 67.7188 13.5 64.985 13.5 67.7188V67.7188ZM14.5533 57.5938C9.28666 56.5813 18.8983 55.0625 14.5533 57.5938V57.5938ZM17.9767 77.8438C12.1833 76.8313 16.3967 71.2625 17.9767 77.8438V77.8438ZM21.9267 90.5C27.4567 95.6638 25.35 98.4988 31.0117 104.776C23.6383 101.233 22.19 92.6263 17.845 87.0575C12.4467 77.945 20.8733 86.9563 21.9267 90.5V90.5ZM75.7783 155.098C71.3017 154.389 68.2733 150.744 65.1133 148.415C56.1253 143.356 49.0017 136.587 44.4417 128.773C36.8615 121.329 30.4119 113.244 25.2183 104.675C19.82 95.36 28.51 105.384 29.8267 108.928C32.5917 115.813 41.4133 119.761 42.2033 124.318C51.9467 128.57 46.9433 135.658 55.37 137.581C58.925 136.164 59.32 146.086 67.0883 144.061C62.7433 145.58 68.8 147.403 71.0383 150.238C75.6467 149.731 86.4433 158.54 75.7783 155.503V155.098ZM34.83 90.5C30.7483 89.7913 39.175 89.3863 34.83 90.5V90.5ZM37.4633 95.2588C30.2217 93.8413 44.31 93.2338 37.4633 95.2588V95.2588ZM55.765 100.018C61.0317 98.2963 57.8717 107.915 63.0067 109.13C73.0133 119.255 56.0283 109.13 49.84 108.421C50.63 108.421 44.8367 107.206 47.3383 106.801C45.495 105.283 41.4133 100.119 50.7617 103.561C58.6617 105.991 59.32 104.169 55.765 99.6125V100.018ZM73.0133 117.838C73.0133 119.356 63.5333 119.154 72.2233 122.09C67.22 122.09 65.64 122.09 72.2233 125.128C69.3267 126.849 77.885 128.266 74.9883 130.899C83.6783 136.164 73.4083 132.215 69.7217 130.089C66.035 127.963 58.53 126.545 59.8467 125.026C70.5117 129.279 62.6117 125.026 57.8717 121.989C66.43 123.609 51.1567 117.129 59.1883 118.85C61.69 119.356 55.6333 115.003 63.5333 118.141C56.4233 112.876 69.7217 116.926 73.0133 117.433V117.838ZM79.3333 116.116C71.3017 114.699 79.3333 112.674 79.3333 116.116V116.116ZM77.095 136.366C69.0633 133.734 82.23 136.366 77.095 136.366V136.366ZM71.17 134.645C61.8217 132.316 78.0167 134.645 71.17 134.645V134.645ZM69.985 135.759C67.0883 135.759 69.985 134.038 69.985 135.759V135.759ZM55.765 120.065C46.285 117.028 53.1317 116.724 55.765 120.065V120.065ZM48.655 116.521C41.0183 113.18 47.6017 113.18 48.655 116.521V116.521ZM48.655 123.103C41.15 118.648 47.7333 120.571 48.655 123.103V123.103ZM46.68 109.535C42.0717 109.535 48.3917 107.51 46.68 109.535V109.535ZM79.3333 144.973C72.6183 143.454 79.3333 143.555 79.3333 144.973V144.973ZM74.4617 141.125H72.355C63.4017 135.658 76.4367 137.278 82.23 139.708C95.0017 141.125 79.3333 143.656 74.4617 141.125V141.125ZM110.012 157.831C101.058 156.211 112.118 155.098 110.012 157.831V157.831ZM107.773 152.566C107.115 152.566 106.457 151.453 107.773 152.566V152.566ZM96.45 138.999C88.6817 137.581 99.215 137.075 101.19 138.999C114.62 141.125 100.4 141.631 96.45 138.999ZM99.215 151.25H97.7667L96.055 150.643C88.6817 144.669 111.723 153.478 99.215 151.25ZM95.5283 158.236C93.5533 158.844 95.5283 156.819 95.5283 158.236V158.236ZM99.3467 146.188L97.24 145.681C88.55 141.125 108.3 146.593 99.3467 145.681V146.188ZM101.453 163.603C96.1867 161.983 104.877 161.071 101.453 163.603V163.603ZM102.77 156.11C95.1333 154.693 107.51 154.794 102.77 156.11V156.11ZM104.482 149.934C98.6883 149.326 105.14 147.808 104.482 149.934V149.934ZM95.0017 141.024C101.058 141.631 101.19 143.758 95.0017 142.441C93.8167 142.441 91.8417 142.441 91.315 140.72C81.3083 135.658 91.71 138.189 95.0017 140.518V141.024ZM94.2117 161.274C91.5783 162.489 94.2117 159.046 94.2117 161.274V161.274ZM90.13 156.11C83.1517 156.11 95.3967 153.478 90.13 156.11V156.11ZM88.55 159.654C85.1267 158.641 90.7883 158.844 88.55 159.654V159.654ZM92.5 150.643C85.6533 149.225 95.7917 148.82 92.5 150.643V150.643ZM90.3933 144.871C86.7067 144.871 89.6033 143.251 90.3933 144.871V144.871ZM83.2833 135.253C75.7783 130.595 98.82 139.1 83.2833 135.253V135.253ZM82.4933 137.176C82.4933 137.784 81.045 136.265 82.4933 137.176V137.176ZM130.552 175.449C118.836 173.841 107.484 170.942 96.845 166.843L92.5 164.818C84.995 161.679 85.9167 160.97 93.29 164.109C95.7917 165.729 114.225 171.5 105.535 167.653C101.717 166.944 80.5183 158.034 94.475 161.881C106.104 166.623 118.161 170.717 130.552 174.133C141.025 176.044 151.847 176.557 162.547 175.651C171.105 178.993 180.058 174.841 188.88 177.778C169.32 179.59 149.501 178.802 130.288 175.449H130.552ZM114.093 168.361C107.378 167.45 116.2 166.033 114.093 168.361V168.361ZM123.705 158.236C116.068 157.123 131.605 155.908 123.705 158.236V158.236ZM134.765 171.5C147.932 175.246 126.865 172.715 122.52 170.589C110.407 166.741 132 171.5 134.765 171.5ZM120.808 160.363C110.143 159.148 132.658 160.363 120.808 160.363V160.363ZM140.822 168.969C137.003 171.298 140.822 165.931 140.822 168.969V168.969ZM144.64 169.475C142.665 170.083 144.64 167.754 144.64 169.475V169.475ZM148.195 165.628C146.088 167.653 148.195 163.299 148.195 165.628V165.628ZM152.277 165.628C146.352 167.349 158.465 161.679 152.277 165.628V165.628ZM154.12 165.628C160.572 161.375 160.835 163.4 160.703 166.944C155.042 171.804 158.465 164.919 154.91 167.551C151.355 170.184 152.408 166.539 154.12 165.83V165.628ZM165.048 170.184C158.465 170.184 171.763 164.716 165.048 170.184V170.184ZM165.048 172.006C162.415 172.513 165.048 170.69 165.048 172.006V172.006ZM162.942 168.463C157.807 165.83 175.318 162.286 162.942 168.463V168.463ZM170.447 169.374H169.393C168.998 167.045 176.503 166.64 170.447 169.576V169.374ZM172.422 171.298C168.472 170.488 178.61 167.248 172.422 171.298V171.298ZM177.162 170.285C170.447 172.108 183.482 166.235 177.162 170.285V170.285ZM180.058 171.399L178.478 172.209C175.45 170.791 187.827 167.349 180.058 171.5V171.399ZM174.397 166.033C167.287 164.21 155.963 158.338 148.063 162.286C137.53 167.45 153.462 156.616 144.903 161.476C136.213 169.475 138.978 156.414 130.552 160.363C130.552 159.148 123.047 158.743 128.313 156.616C123.573 156.616 126.602 156.11 128.313 153.174C126.207 153.174 115.147 153.174 110.407 150.238C105.14 144.973 111.328 147.2 116.727 147.909C107.905 149.124 119.887 152.971 125.68 150.845C123.047 149.934 120.018 145.58 112.513 141.733C103.449 137.911 94.082 134.53 84.4683 131.608C73.4083 126.545 86.8383 129.785 90.6567 132.418C101.717 136.164 97.3717 127.254 90.6567 124.925C83.5467 124.925 81.835 118.951 76.1733 119.255C84.995 120.369 91.1833 117.534 81.3083 110.649C71.4333 103.764 85.2583 117.028 79.86 115.104C77.3583 112.573 79.2017 109.029 71.3017 107.713C71.3017 110.041 70.2483 113.585 68.5367 108.725C66.2983 108.725 63.7967 110.851 61.9533 105.89C63.665 100.119 54.58 98.8025 53.1317 95.1575C61.0317 99.005 64.5867 95.9675 59.0567 91.8163C53.5267 87.665 54.7117 90.7025 52.605 91.8163C44.8367 97.8913 51.815 81.6913 48.3917 86.1463C44.9683 86.1463 46.9433 89.0825 47.075 92.7275C35.7517 90.6013 49.7083 97.2838 53 100.929C47.865 96.8788 48.7867 104.068 44.4417 100.929C42.9933 97.8913 42.8617 93.1325 35.62 92.3225C43.7833 90.095 30.88 85.7413 31.9333 85.5388C36.5417 82.2988 37.2 77.8438 42.73 84.83C35.7517 84.83 42.73 93.74 44.31 90.905C44.31 86.1463 47.2067 80.78 36.5417 78.8563C33.3817 82.0963 27.9833 72.4775 34.1717 74.5025C33.3817 68.1238 43.915 71.87 43.2567 69.1363C48.7867 67.3138 36.6733 61.34 43.2567 59.0113C48.26 61.4413 61.1633 55.3663 52.4733 54.5563C58.0033 54.5563 62.3483 56.3788 62.875 52.1263C67.22 52.835 79.2017 55.7713 68.405 51.215C73.1437 49.7331 78.1739 48.8773 83.2833 48.6838C93.685 42.5075 91.5783 58.8088 89.2083 63.365C93.1583 61.2388 92.3683 72.8825 91.0517 77.2363C93.1583 75.0088 94.08 80.8813 91.0517 85.0325C91.0517 84.3238 96.3183 83.7163 92.6317 88.5763C89.735 83.8175 88.55 98.7013 90.3933 91.8163C95.265 85.64 94.08 91.8163 95.5283 94.2463C96.5817 99.815 99.7417 104.979 100.795 110.041C105.403 113.585 98.82 111.155 98.82 116.015C100.268 114.598 106.457 117.939 106.325 122.9C106.325 115.003 107.51 121.078 112.513 122.9C115.88 128.2 120.325 133.054 125.68 137.278C130.552 141.631 125.68 138.594 127.523 141.226C130.773 144.675 134.877 147.595 139.599 149.82C144.322 152.044 149.57 153.528 155.042 154.186C157.069 156.897 160.163 159.044 163.877 160.317C167.592 161.591 171.736 161.926 175.713 161.274C167.813 165.02 197.833 166.033 187.695 168.058C184.667 169.678 179.532 166.033 174.397 166.235V166.033ZM88.55 129.886C85.39 129.886 88.55 127.861 88.55 129.886V129.886ZM93.5533 132.114C91.1833 132.114 91.9733 129.684 93.5533 132.114V132.114ZM59.1883 95.1575C56.0283 94.4488 60.505 94.2463 59.1883 95.1575V95.1575ZM51.42 95.1575C47.9967 95.1575 51.42 91.715 51.42 95.1575V95.1575ZM47.47 94.3475C46.1533 94.8538 47.47 93.2338 47.47 94.3475V94.3475ZM192.303 177.879C187.168 177.17 196.517 175.651 192.303 177.879V177.879ZM201.915 167.248H197.965C198.755 162.691 215.477 166.235 222.323 166.336C220.217 169.779 207.445 166.741 201.915 167.653V167.248ZM228.248 167.248C224.693 167.248 229.828 164.008 228.248 167.248V167.248ZM241.415 166.336C238.123 167.653 241.415 163.299 241.415 166.336V166.336ZM247.735 167.45C240.888 166.235 250.895 166.235 253.002 166.033C265.378 166.235 253.002 167.653 246.813 167.653L247.735 167.45Z" fill="black"/>
<path d="M59.715 40.9887C72.8817 38.9637 54.7117 37.6475 50.63 40.9887C53 42.305 56.0283 38.8625 59.715 40.9887Z" fill="black"/>
<path d="M48.9183 42.305C48.9183 44.2288 51.2883 40.0775 48.9183 42.305V42.305Z" fill="black"/>
<path d="M83.415 37.445C92.2367 36.3313 84.8633 33.2938 82.23 38.4575C83.1517 39.875 83.6783 37.9513 83.415 37.445Z" fill="black"/>
<path d="M75.2517 38.4575C87.4967 42.1025 74.5933 28.3325 75.2517 38.4575V38.4575Z" fill="black"/>
<path d="M36.805 47.8737C38.3623 47.8131 39.8985 48.1711 41.15 48.8862C51.025 54.1513 39.8333 40.3812 36.805 47.8737Z" fill="black"/>
<path d="M37.3317 44.2287C39.4383 45.545 41.15 42.1025 37.3317 44.2287V44.2287Z" fill="black"/>
<path d="M42.2033 44.33L44.0467 45.545C53 46.1525 42.5983 40.8875 42.2033 44.33Z" fill="black"/>
<path d="M114.752 131C115.937 134.037 114.752 127.051 114.752 131V131Z" fill="black"/>
<path d="M51.815 80.375C53.1317 82.1975 54.185 78.5525 51.815 80.375V80.375Z" fill="black"/>
<path d="M53 86.5512C55.5017 89.9937 53 81.3875 53 86.5512V86.5512Z" fill="black"/>
<path d="M55.765 81.59C60.11 83.7163 52.0783 76.325 55.765 81.59V81.59Z" fill="black"/>
<path d="M50.3667 73.2875C51.2883 74.8062 53.5267 74.9075 55.2383 75.3125C72.6183 81.4887 42.73 65.1875 50.3667 73.2875Z" fill="black"/>
<path d="M57.4767 87.7662C61.5583 93.1325 59.8467 84.02 57.4767 87.7662V87.7662Z" fill="black"/>
<path d="M63.7967 86.1463C68.6683 95.4613 60.7683 84.9313 59.8467 81.7925C59.9595 85.351 61.2268 88.8314 63.5333 91.9175C68.01 97.0813 66.035 89.0825 70.775 94.2463C68.1417 89.69 72.0917 92.2213 71.565 90.1963C71.0383 88.1713 58.3983 78.35 63.7967 86.1463Z" fill="black"/>
<path d="M68.5367 104.169C69.7217 107.307 70.9067 104.169 68.5367 104.169V104.169Z" fill="black"/>
<path d="M51.025 60.125C51.815 61.5425 52.4733 60.125 51.025 60.125V60.125Z" fill="black"/>
<path d="M59.8467 64.3775C64.06 68.5288 62.085 60.7325 59.8467 64.3775V64.3775Z" fill="black"/>
<path d="M48.1283 75.92L49.9717 77.4387C63.0067 80.375 36.1467 67.82 48.1283 75.92Z" fill="black"/>
<path d="M57.345 72.1737C70.5117 76.325 56.16 69.44 51.5517 70.1487C53 71.465 55.765 70.8575 57.345 72.1737Z" fill="black"/>
<path d="M54.975 67.7188C57.345 69.5413 65.7717 72.8825 59.0567 68.3263C63.27 67.7188 59.0567 66.7063 55.8967 65.0863C50.1033 58.3025 56.8183 65.6938 54.975 67.7188V67.7188Z" fill="black"/>
<path d="M46.5483 76.73C39.57 72.275 48.655 78.8562 45.7583 78.755C38.5167 74.705 41.545 77.6412 45.7583 80.78C50.1033 85.8425 53.6583 77.7425 46.5483 76.73V76.73Z" fill="black"/>
<path d="M74.725 83.21C76.305 84.3238 73.935 76.325 74.725 83.21V83.21Z" fill="black"/>
<path d="M88.155 47.7725C88.155 48.9875 89.0767 46.76 88.155 47.7725V47.7725Z" fill="black"/>
<path d="M88.6817 82.9062C89.735 87.5637 89.9983 75.0087 88.6817 82.9062V82.9062Z" fill="black"/>
<path d="M90.525 85.1338V86.1462C93.29 80.9825 91.0517 78.1475 90.525 85.1338Z" fill="black"/>
<path d="M89.2083 57.7962C87.365 64.8837 85.6533 61.9475 88.155 56.6825C87.4967 49.8987 82.23 60.8337 84.6 63.9725C88.4183 68.7312 92.5 52.2275 89.2083 57.7962V57.7962Z" fill="black"/>
<path d="M102.507 118.344C104.218 121.888 103.955 114.091 102.507 118.344V118.344Z" fill="black"/>
<path d="M93.1583 92.2212C93.1583 94.8538 94.6067 88.3737 93.1583 92.2212V92.2212Z" fill="black"/>
<path d="M99.0833 110.75L100.005 111.864C101.848 106.902 95.265 103.865 99.0833 110.75Z" fill="black"/>
<path d="M78.5433 105.485C82.0983 107.712 76.8317 103.156 78.5433 105.485V105.485Z" fill="black"/>
<path d="M94.7383 96.8788C95.7917 99.815 94.7383 92.6263 94.7383 96.8788V96.8788Z" fill="black"/>
<path d="M81.1767 68.3262C83.1517 71.6675 80.5183 65.5925 81.1767 68.3262V68.3262Z" fill="black"/>
<path d="M83.2833 72.5787C86.4433 76.0212 79.86 66.0987 83.2833 72.5787V72.5787Z" fill="black"/>
<path d="M82.4933 84.2225C80.7817 74.0975 76.9633 88.7788 82.4933 91.2088C84.205 94.6513 85.785 93.2338 86.4433 89.285C82.23 89.285 87.4967 83.0075 82.4933 84.2225Z" fill="black"/>
</svg>
